<svg xmlns="http://www.w3.org/2000/svg" width="12" height="12" viewBox="0 0 12 12" fill="none">
  <path d="M0.314 5.415L2.643 7.190C2.909 7.393 3.020 7.752 2.919 8.080L2.029 10.954C1.802 11.687 2.602 12.298 3.198 11.844L5.526 10.069C5.792 9.866 6.152 9.866 6.418 10.069L8.746 11.844C9.341 12.298 10.142 11.687 9.915 10.954L9.025 8.080C8.923 7.752 9.035 7.393 9.301 7.190L11.629 5.415C12.224 4.961 11.918 3.973 11.183 3.973L8.305 3.974C7.976 3.974 7.684 3.751 7.583 3.423L6.694 0.551C6.467 -0.184 5.477 -0.184 5.250 0.551L4.360 3.423C4.259 3.751 3.968 3.974 3.638 3.974L0.760 3.973C0.025 3.973 -0.280 4.961 0.314 5.415Z" fill="#087021"/>
</svg>
